<svg width="24" height="24" viewBox="0 0 24 24"
    xmlns="http://www.w3.org/2000/svg">
    <path d="M22.875 6h-0.375V3.75c0 -2.1 -4.65 -3.75 -10.5 -3.75S1.5 1.65 1.5 3.75v2.25h-0.375c-0.621 0 -1.125 0.503 -1.125 1.125v3.75c0 0.621 0.504 1.125 1.125 1.125h0.375v7.5c0 0.828 0.672 1.5 1.5 1.5v1.5c0 0.828 0.672 1.5 1.5 1.5h1.5c0.828 0 1.5 -0.672 1.5 -1.5v-1.5h9v1.5c0 0.828 0.672 1.5 1.5 1.5h1.5c0.828 0 1.5 -0.672 1.5 -1.5v-1.5h0.3c0.75 0 1.2 -0.6 1.2 -1.2V12h0.375c0.621 0 1.125 -0.504 1.125 -1.125v-3.75c0 -0.622 -0.504 -1.125 -1.125 -1.125zM7.5 3.375c0 -0.207 0.168 -0.375 0.375 -0.375h8.25c0.207 0 0.375 0.168 0.375 0.375v0.75c0 0.207 -0.168 0.375 -0.375 0.375H7.875c-0.207 0 -0.375 -0.168 -0.375 -0.375V3.375zm-2.25 15.375c-0.828 0 -1.5 -0.672 -1.5 -1.5s0.672 -1.5 1.5 -1.5 1.5 0.672 1.5 1.5 -0.672 1.5 -1.5 1.5zm6 -5.25H6c-0.828 0 -1.5 -0.672 -1.5 -1.5v-4.5c0 -0.828 0.672 -1.5 1.5 -1.5h5.25v7.5zm1.5 0V6h5.25c0.828 0 1.5 0.672 1.5 1.5v4.5c0 0.828 -0.672 1.5 -1.5 1.5H12.75zm6 5.25c-0.828 0 -1.5 -0.672 -1.5 -1.5s0.672 -1.5 1.5 -1.5 1.5 0.672 1.5 1.5 -0.672 1.5 -1.5 1.5z" fill="currentColor"/>
</svg>