<svg width="24" height="24" viewBox="0 0 24 24" fill="none"
    xmlns="http://www.w3.org/2000/svg">
    <path d="M20 18.25H4a.76.76 0 0 1-.75-.75v-5A3.75 3.75 0 0 1 7 8.75h10a3.75 3.75 0 0 1 3.75 3.75v5a.76.76 0 0 1-.75.75Zm-15.25-1.5h14.5V12.5A2.25 2.25 0 0 0 17 10.25H7a2.25 2.25 0 0 0-2.25 2.25v4.25Z" fill="currentColor"/>
    <path d="M7.5 21.25A2.25 2.25 0 0 1 5.25 19v-1.5a.75.75 0 1 1 1.5 0V19a.75.75 0 1 0 1.5 0v-1.5a.75.75 0 1 1 1.5 0V19a2.25 2.25 0 0 1-2.25 2.25Zm9 0A2.25 2.25 0 0 1 14.25 19v-1.5a.75.75 0 1 1 1.5 0V19a.75.75 0 1 0 1.5 0v-1.5a.75.75 0 1 1 1.5 0V19a2.25 2.25 0 0 1-2.25 2.25Zm-8.5-7a.72.72 0 0 1-.29-.06.74.74 0 0 1-.4-.4.72.72 0 0 1-.06-.29.75.75 0 1 1 1.44.32.74.74 0 0 1-.4.4.749.749 0 0 1-.29.03Zm8 0c-.1 0-.198-.02-.29-.06a.74.74 0 0 1-.4-.4.75.75 0 1 1 .69.46Zm2-4H6a.76.76 0 0 1-.75-.75v-3A3.75 3.75 0 0 1 9 2.75h6a3.75 3.75 0 0 1 3.75 3.75v3a.76.76 0 0 1-.75.75ZM6.75 8.75h10.5V6.5A2.25 2.25 0 0 0 15 4.25H9A2.25 2.25 0 0 0 6.75 6.5v2.25Z" fill="currentColor"/>
</svg>