<svg version="1.1" id="Layer_1"
    xmlns="http://www.w3.org/2000/svg"
    xmlns:xlink="http://www.w3.org/1999/xlink" x="0px" y="0px" viewBox="0 0 24 24" style="enable-background:new 0 0 511.999 511.999;" xml:space="preserve" width="24" height="24">
    <g>
        <g>
            <path d="M23.183 9.76c-0.287 0 -0.527 0.147 -0.674 0.37l-1.139 -1.7v-2.383c0 -1.385 -1.145 -2.486 -2.53 -2.486H5.16c-1.385 0 -2.53 1.101 -2.53 2.486v2.383l-1.141 1.7c-0.147 -0.223 -0.39 -0.37 -0.677 -0.37C0.359 9.76 0 10.128 0 10.581v7.307c0 0.454 0.359 0.796 0.812 0.796h0.612v0.932c0 0.454 0.368 0.822 0.822 0.822s0.822 -0.368 0.822 -0.822v-0.932h17.863v0.932c0 0.454 0.368 0.822 0.822 0.822s0.822 -0.368 0.822 -0.822v-0.932h0.612c0.454 0 0.813 -0.342 0.813 -0.796V10.582C24 10.128 23.637 9.76 23.183 9.76zM4.274 6.047c0 -0.478 0.408 -0.842 0.886 -0.842h13.68c0.478 0 0.886 0.364 0.886 0.842v1.788h-0.72c0.005 -0.036 0.008 -0.072 0.008 -0.11c0 -0.454 -0.368 -0.822 -0.822 -0.822H5.808c-0.454 0 -0.822 0.368 -0.822 0.822c0 0.037 0.003 0.074 0.008 0.11H4.274V6.047zM3.931 9.466c0.041 0.006 0.082 0.013 0.124 0.013h16.021l0.672 0.986H3.252L3.931 9.466zM22.356 17.041H1.644V12.11H22.356V17.041z" fill="currentColor"/>
        </g>
    </g>
</svg>