<svg width="24" height="24" viewBox="0 0 24 24"
    xmlns="http://www.w3.org/2000/svg">
    <path fill="#000" d="M12.558 0.961s-0.608 0.31 -1.214 0.767c-0.303 0.228 -0.611 0.493 -0.853 0.798 -0.243 0.305 -0.441 0.667 -0.411 1.091 0.033 0.471 0.352 0.821 0.693 1.031 0.34 0.21 0.727 0.337 1.091 0.463 0.364 0.125 0.705 0.249 0.922 0.383 0.217 0.134 0.284 0.22 0.295 0.373 0.001 0.017 -0.02 0.11 -0.122 0.239 -0.103 0.129 -0.268 0.278 -0.442 0.408 -0.346 0.26 -0.708 0.447 -0.708 0.447l0.385 0.751s0.414 -0.211 0.83 -0.524c0.208 -0.157 0.421 -0.339 0.594 -0.557 0.174 -0.218 0.328 -0.489 0.304 -0.825 -0.033 -0.471 -0.352 -0.821 -0.693 -1.031 -0.34 -0.21 -0.727 -0.337 -1.091 -0.463 -0.364 -0.125 -0.705 -0.249 -0.922 -0.383 -0.217 -0.134 -0.284 -0.22 -0.295 -0.373 -0.007 -0.106 0.057 -0.289 0.229 -0.505 0.172 -0.216 0.432 -0.448 0.701 -0.65 0.537 -0.404 1.092 -0.69 1.092 -0.69zm-6 2.25s-0.608 0.31 -1.214 0.767c-0.303 0.228 -0.611 0.493 -0.853 0.798 -0.243 0.305 -0.441 0.667 -0.411 1.091 0.033 0.471 0.352 0.821 0.693 1.031 0.34 0.21 0.727 0.337 1.091 0.463 0.364 0.125 0.705 0.249 0.922 0.383 0.217 0.134 0.284 0.22 0.295 0.373 0.001 0.017 -0.02 0.11 -0.122 0.239 -0.103 0.129 -0.268 0.278 -0.442 0.408 -0.346 0.26 -0.708 0.447 -0.708 0.447l0.385 0.751s0.414 -0.211 0.83 -0.524c0.208 -0.157 0.421 -0.339 0.594 -0.557 0.174 -0.218 0.328 -0.489 0.304 -0.825 -0.033 -0.471 -0.352 -0.821 -0.693 -1.031 -0.34 -0.21 -0.727 -0.337 -1.091 -0.463 -0.364 -0.125 -0.705 -0.249 -0.922 -0.383 -0.217 -0.134 -0.284 -0.22 -0.295 -0.373 -0.007 -0.106 0.057 -0.289 0.229 -0.505 0.172 -0.216 0.432 -0.448 0.701 -0.65 0.537 -0.404 1.092 -0.69 1.092 -0.69zm12 0s-0.608 0.31 -1.214 0.767c-0.303 0.228 -0.611 0.493 -0.853 0.798 -0.243 0.305 -0.441 0.667 -0.411 1.091 0.033 0.471 0.352 0.821 0.693 1.031 0.34 0.21 0.727 0.337 1.091 0.463 0.364 0.125 0.705 0.249 0.922 0.383 0.217 0.134 0.284 0.22 0.295 0.373 0.001 0.017 -0.02 0.11 -0.122 0.239 -0.103 0.129 -0.268 0.278 -0.442 0.408 -0.346 0.26 -0.708 0.447 -0.708 0.447l0.385 0.751s0.414 -0.211 0.83 -0.524c0.208 -0.157 0.421 -0.339 0.594 -0.557 0.174 -0.218 0.328 -0.489 0.304 -0.825 -0.033 -0.471 -0.352 -0.821 -0.693 -1.031 -0.34 -0.21 -0.727 -0.337 -1.091 -0.463 -0.364 -0.125 -0.705 -0.249 -0.922 -0.383 -0.217 -0.134 -0.284 -0.22 -0.295 -0.373 -0.007 -0.106 0.057 -0.289 0.229 -0.505 0.172 -0.216 0.432 -0.448 0.701 -0.65 0.537 -0.404 1.092 -0.69 1.092 -0.69zM12 8.789c-0.609 0 -1.022 0.277 -1.337 0.75 -0.13 0.196 -0.236 0.427 -0.315 0.678 0.531 -0.075 1.081 -0.115 1.651 -0.115 0.57 0 1.121 0.04 1.651 0.115 -0.079 -0.251 -0.184 -0.482 -0.315 -0.678 -0.315 -0.473 -0.727 -0.75 -1.337 -0.75zm0 2.156c-5.598 0 -9.082 4.033 -9.307 8.156h18.613C21.082 14.978 17.598 10.945 12 10.945zM1.048 19.319L0.452 19.916C1.301 20.765 2.25 20.789 3 20.789h18c0.75 0 1.699 -0.024 2.548 -0.874l-0.597 -0.597C22.301 19.97 21.75 19.946 21 19.946H3c-0.75 0 -1.301 0.024 -1.952 -0.626zm4.24 2.314l0.938 1.406h11.549l0.938 -1.406z" fill="currentColor"/>
</svg>