<svg xmlns="http://www.w3.org/2000/svg" viewBox="0 0 24 24" xml:space="preserve" width="24" height="24">
    <path d="M23.6 21.201H0.4c-0.221 0 -0.4 0.179 -0.4 0.4s0.179 0.4 0.4 0.4h23.2c0.221 0 0.4 -0.179 0.4 -0.4s-0.179 -0.4 -0.4 -0.4zm-1.2 -3.6H8.4a0.4 0.4 0 0 1 -0.4 -0.4V12.001a0.4 0.4 0 0 0 -0.4 -0.4h-4.8a0.4 0.4 0 0 0 -0.4 0.4v1.2a0.4 0.4 0 0 0 0.303 0.388l1.297 0.324v3.688H2a0.4 0.4 0 0 0 -0.4 0.4v1.2a0.4 0.4 0 0 0 0.4 0.4h2c0 0.882 0.718 1.6 1.6 1.6s1.6 -0.718 1.6 -1.6h1.2c0 0.882 0.718 1.6 1.6 1.6 0.882 0 1.6 -0.718 1.6 -1.6h1.2c0 0.882 0.718 1.6 1.6 1.6s1.6 -0.718 1.6 -1.6h1.2c0 0.882 0.718 1.6 1.6 1.6 0.882 0 1.6 -0.718 1.6 -1.6h2a0.4 0.4 0 0 0 0.4 -0.4v-1.2c0 -0.221 -0.179 -0.4 -0.4 -0.4z" fill="currentColor"/>
    <path d="M21.2 12.801H19.2v-0.8c0 -0.526 -0.342 -0.968 -0.813 -1.13 0.024 -0.075 0.05 -0.15 0.061 -0.232 0.058 -0.433 -0.081 -0.852 -0.37 -1.157 0.121 -0.41 0.111 -0.928 -0.174 -1.339 -0.138 -0.199 -0.433 -0.492 -0.996 -0.552 0.065 -0.644 -0.186 -1.268 -0.71 -1.712 -0.644 -0.546 -1.522 -0.701 -2.312 -0.443 -0.074 -0.179 -0.182 -0.325 -0.325 -0.436 -0.172 -0.134 -0.381 -0.212 -0.63 -0.233 0.095 -0.621 -0.04 -1.233 -0.395 -1.738 -0.474 -0.674 -1.251 -1.054 -2.134 -1.027 -0.948 0 -1.893 0.514 -2.351 1.278 -0.329 0.55 -0.377 1.177 -0.145 1.795 -0.955 0.797 -1.055 1.866 -0.701 2.622 0.36 0.772 1.265 1.392 2.526 1.178 0.164 0.328 0.476 0.63 0.875 0.829 0.552 0.276 1.177 0.321 1.765 0.139 0.06 0.375 0.248 0.645 0.431 0.826 0.711 0.705 2.052 0.79 3.086 0.571 0.264 0.207 0.614 0.344 0.978 0.395 -0.038 0.116 -0.064 0.238 -0.064 0.367v0.8h-2.088c-0.215 -0.47 -0.803 -0.8 -1.512 -0.8 -0.709 0 -1.297 0.33 -1.512 0.8h-2.488a0.4 0.4 0 0 0 -0.4 0.4v3.6h12.4c0.684 0 1.2 -0.86 1.2 -2s-0.516 -2 -1.2 -2z" fill="currentColor"/>
</svg>